{"title":"Chawz 2009 DVDRip Xvid BigPerm LKRG","uid":6398048,"size":1501810170,"categoryP":"video","categoryS":"movies","magnet":"?xt=urn:btih:58e6eda961f6ea0bfacac5503c8ec4a1a1f23bc6&amp;dn=Chawz+2009+DVDRip+Xvid+BigPerm+LKRG&amp;tr=udp%3A%2F%2Ftracker.openbittorrent.com%3A80&amp;tr=udp%3A%2F%2Fopen.demonii.com%3A1337&amp;tr=udp%3A%2F%2Ftracker.coppersurfer.tk%3A6969&amp;tr=udp%3A%2F%2Fexodus.desync.com%3A6969","seeders":0,"leechers":1,"uploader":".BONE.","files":102,"time":1305578792,"description":"\nEncoded By .......: BigPerm1828\nRuntime ..........: 2h 2mn\nFile Size ........: 1.41 GB\nResolution .......: 704x396\nIMDb URL .........: http://www.imdb.com/title/tt1198396/\nLanguage .........: English\nVideo\nID : 0\nFormat : MPEG-4 Visual\nFormat profile : Advanced Simple@L5\nFormat settings, BVOP : Yes\nFormat settings, QPel : No\nFormat settings, GMC : No warppoints\nFormat settings, Matrix : Default (H.263)\nCodec ID : XVID\nCodec ID/Hint : XviD\nDuration : 2h 2mn\nBit rate : 44.6 Kbps\nWidth : 704 pixels\nHeight : 396 pixels\nDisplay aspect ratio : 16:9\nFrame rate : 29.970 fps\nColor space : YUV\nChroma subsampling : 4:2:0\nBit depth : 8 bits\nScan type : Progressive\nCompression mode : Lossy\nBits/(Pixel*Frame) : 0.005\nStream size : 38.9 MiB (3%)\nWriting library : XviD 1.2.1 (UTC 2008-12-04)\n\nAudio\nID : 1\nFormat : AC-3\nFormat/Info : Audio Coding 3\nCodec ID : 2000\nDuration : 2h 2mn\nBit rate mode : Constant\nBit rate : 448 Kbps\nChannel(s) : 6 channels\nSampling rate : 48.0 KHz\nBit depth : 16 bits\nCompression mode : Lossy\nStream size : 391 MiB (27%)\nAlignment : Aligned on interleaves\n &lt;a href=&quot;\nhttp://leetleech.org/images/91762653190932281384.png&quot; rel=&quot;nofollow&quot; target=&quot;_NEW&quot;&gt;\nhttp://leetleech.org/images/91762653190932281384.png&lt;/a&gt;\n &lt;a href=&quot;\nhttp://leetleech.org/images/66177150721001598102.png&quot; rel=&quot;nofollow&quot; target=&quot;_NEW&quot;&gt;\nhttp://leetleech.org/images/66177150721001598102.png&lt;/a&gt;\n &lt;a href=&quot;\nhttp://leetleech.org/images/93946295578966877855.png&quot; rel=&quot;nofollow&quot; target=&quot;_NEW&quot;&gt;\nhttp://leetleech.org/images/93946295578966877855.png&lt;/a&gt;","torrent":{"xt":"urn:btih:58e6eda961f6ea0bfacac5503c8ec4a1a1f23bc6","amp;dn":"Chawz+2009+DVDRip+Xvid+BigPerm+LKRG","amp;tr":["udp%3A%2F%2Ftracker.openbittorrent.com%3A80","udp%3A%2F%2Fopen.demonii.com%3A1337","udp%3A%2F%2Ftracker.coppersurfer.tk%3A6969","udp%3A%2F%2Fexodus.desync.com%3A6969"],"infoHash":"58e6eda961f6ea0bfacac5503c8ec4a1a1f23bc6","infoHashBuffer":{"type":"Buffer","data":[88,230,237,169,97,246,234,11,250,202,197,80,60,142,196,161,161,242,59,198]},"announce":[],"urlList":[]}}